<mxfile host="Electron" modified="2024-02-05T08:32:08.360Z" agent="Mozilla/5.0 (Windows NT 10.0; Win64; x64) AppleWebKit/537.36 (KHTML, like Gecko) draw.io/23.0.2 Chrome/120.0.6099.109 Electron/28.1.0 Safari/537.36" etag="JtAakjjJ-jI5cpAM5J5z" version="23.0.2" type="device">
  <diagram name="Page-1" id="DltFXYaRLbcIovbdO_U5">
    <mxGraphModel dx="1032" dy="1187" grid="1" gridSize="10" guides="1" tooltips="1" connect="1" arrows="1" fold="1" page="1" pageScale="1" pageWidth="850" pageHeight="1100" math="0" shadow="0">
      <root>
        <mxCell id="0" />
        <mxCell id="1" parent="0" />
        <mxCell id="uM5fp7qaklXQpzuL0AsU-1" value="Start" style="ellipse;whiteSpace=wrap;html=1;" vertex="1" parent="1">
          <mxGeometry x="92" width="120" height="80" as="geometry" />
        </mxCell>
        <mxCell id="uM5fp7qaklXQpzuL0AsU-4" value="" style="edgeStyle=orthogonalEdgeStyle;rounded=0;orthogonalLoop=1;jettySize=auto;html=1;" edge="1" parent="1" source="uM5fp7qaklXQpzuL0AsU-2" target="uM5fp7qaklXQpzuL0AsU-3">
          <mxGeometry relative="1" as="geometry" />
        </mxCell>
        <mxCell id="uM5fp7qaklXQpzuL0AsU-2" value="While" style="rounded=1;whiteSpace=wrap;html=1;" vertex="1" parent="1">
          <mxGeometry x="92" y="100" width="120" height="60" as="geometry" />
        </mxCell>
        <mxCell id="uM5fp7qaklXQpzuL0AsU-3" value="reading rides&lt;br&gt;from userInput" style="rhombus;whiteSpace=wrap;html=1;" vertex="1" parent="1">
          <mxGeometry x="97" y="180" width="110" height="110" as="geometry" />
        </mxCell>
        <mxCell id="uM5fp7qaklXQpzuL0AsU-6" value="" style="endArrow=classic;html=1;rounded=0;exitX=0.5;exitY=1;exitDx=0;exitDy=0;entryX=0.5;entryY=0;entryDx=0;entryDy=0;" edge="1" parent="1" target="uM5fp7qaklXQpzuL0AsU-2">
          <mxGeometry width="50" height="50" relative="1" as="geometry">
            <mxPoint x="152" y="80" as="sourcePoint" />
            <mxPoint x="177" y="550" as="targetPoint" />
          </mxGeometry>
        </mxCell>
        <mxCell id="uM5fp7qaklXQpzuL0AsU-7" value="" style="endArrow=classic;html=1;rounded=0;exitX=0.5;exitY=1;exitDx=0;exitDy=0;" edge="1" parent="1" source="uM5fp7qaklXQpzuL0AsU-3">
          <mxGeometry width="50" height="50" relative="1" as="geometry">
            <mxPoint x="127" y="600" as="sourcePoint" />
            <mxPoint x="152" y="350" as="targetPoint" />
          </mxGeometry>
        </mxCell>
        <mxCell id="uM5fp7qaklXQpzuL0AsU-8" value="True" style="text;html=1;align=center;verticalAlign=middle;resizable=0;points=[];autosize=1;strokeColor=none;fillColor=none;" vertex="1" parent="1">
          <mxGeometry x="152" y="290" width="50" height="30" as="geometry" />
        </mxCell>
        <mxCell id="uM5fp7qaklXQpzuL0AsU-9" value="" style="endArrow=classic;html=1;rounded=0;exitX=1;exitY=0.5;exitDx=0;exitDy=0;entryX=0.5;entryY=1;entryDx=0;entryDy=0;" edge="1" parent="1" source="uM5fp7qaklXQpzuL0AsU-3" target="uM5fp7qaklXQpzuL0AsU-72">
          <mxGeometry width="50" height="50" relative="1" as="geometry">
            <mxPoint x="297" y="260" as="sourcePoint" />
            <mxPoint x="320" y="100" as="targetPoint" />
            <Array as="points">
              <mxPoint x="337" y="235" />
            </Array>
          </mxGeometry>
        </mxCell>
        <mxCell id="uM5fp7qaklXQpzuL0AsU-10" value="False" style="text;html=1;align=center;verticalAlign=middle;resizable=0;points=[];autosize=1;strokeColor=none;fillColor=none;" vertex="1" parent="1">
          <mxGeometry x="240" y="210" width="50" height="30" as="geometry" />
        </mxCell>
        <mxCell id="uM5fp7qaklXQpzuL0AsU-12" value="Display&lt;br&gt;&quot;Enter genre&quot;" style="shape=parallelogram;html=1;strokeWidth=2;perimeter=parallelogramPerimeter;whiteSpace=wrap;rounded=1;arcSize=12;size=0.23;" vertex="1" parent="1">
          <mxGeometry x="90" y="350" width="125" height="60" as="geometry" />
        </mxCell>
        <mxCell id="uM5fp7qaklXQpzuL0AsU-13" value="genre =&amp;nbsp;&lt;br&gt;userInput" style="shape=parallelogram;html=1;strokeWidth=2;perimeter=parallelogramPerimeter;whiteSpace=wrap;rounded=1;arcSize=12;size=0.23;" vertex="1" parent="1">
          <mxGeometry x="90" y="430" width="125" height="60" as="geometry" />
        </mxCell>
        <mxCell id="uM5fp7qaklXQpzuL0AsU-14" value="Display&lt;br&gt;&quot;Enter duration&lt;br&gt;in minutes&quot;" style="shape=parallelogram;html=1;strokeWidth=2;perimeter=parallelogramPerimeter;whiteSpace=wrap;rounded=1;arcSize=12;size=0.23;" vertex="1" parent="1">
          <mxGeometry x="90" y="510" width="125" height="60" as="geometry" />
        </mxCell>
        <mxCell id="uM5fp7qaklXQpzuL0AsU-15" value="duration =&amp;nbsp;&lt;br&gt;userInput parsed&lt;br&gt;for doubles" style="shape=parallelogram;html=1;strokeWidth=2;perimeter=parallelogramPerimeter;whiteSpace=wrap;rounded=1;arcSize=12;size=0.23;" vertex="1" parent="1">
          <mxGeometry x="82" y="590" width="140" height="60" as="geometry" />
        </mxCell>
        <mxCell id="uM5fp7qaklXQpzuL0AsU-16" value="Display&lt;br&gt;&quot;Enter intensity &lt;br&gt;of motion" style="shape=parallelogram;html=1;strokeWidth=2;perimeter=parallelogramPerimeter;whiteSpace=wrap;rounded=1;arcSize=12;size=0.23;" vertex="1" parent="1">
          <mxGeometry x="82" y="670" width="140" height="60" as="geometry" />
        </mxCell>
        <mxCell id="uM5fp7qaklXQpzuL0AsU-17" value="motionIntensity =&amp;nbsp;&lt;br&gt;userInput parsed&lt;br&gt;for integers" style="shape=parallelogram;html=1;strokeWidth=2;perimeter=parallelogramPerimeter;whiteSpace=wrap;rounded=1;arcSize=12;size=0.23;" vertex="1" parent="1">
          <mxGeometry x="75" y="750" width="155" height="60" as="geometry" />
        </mxCell>
        <mxCell id="uM5fp7qaklXQpzuL0AsU-18" value="Display&lt;br&gt;&quot;Enter quality of&amp;nbsp;&lt;br&gt;simulation&quot;" style="shape=parallelogram;html=1;strokeWidth=2;perimeter=parallelogramPerimeter;whiteSpace=wrap;rounded=1;arcSize=12;size=0.23;" vertex="1" parent="1">
          <mxGeometry x="82" y="830" width="140" height="60" as="geometry" />
        </mxCell>
        <mxCell id="uM5fp7qaklXQpzuL0AsU-19" value="simQuality =&amp;nbsp;&lt;br&gt;userInput" style="shape=parallelogram;html=1;strokeWidth=2;perimeter=parallelogramPerimeter;whiteSpace=wrap;rounded=1;arcSize=12;size=0.23;" vertex="1" parent="1">
          <mxGeometry x="82" y="910" width="140" height="60" as="geometry" />
        </mxCell>
        <mxCell id="uM5fp7qaklXQpzuL0AsU-20" value="Display =&amp;nbsp;&lt;br&gt;&quot;Enter if ride is&lt;br&gt;under maintenance&quot;" style="shape=parallelogram;html=1;strokeWidth=2;perimeter=parallelogramPerimeter;whiteSpace=wrap;rounded=1;arcSize=12;size=0.23;" vertex="1" parent="1">
          <mxGeometry x="60" y="990" width="185" height="60" as="geometry" />
        </mxCell>
        <mxCell id="uM5fp7qaklXQpzuL0AsU-35" value="" style="edgeStyle=orthogonalEdgeStyle;rounded=0;orthogonalLoop=1;jettySize=auto;html=1;" edge="1" parent="1" source="uM5fp7qaklXQpzuL0AsU-21" target="uM5fp7qaklXQpzuL0AsU-34">
          <mxGeometry relative="1" as="geometry" />
        </mxCell>
        <mxCell id="uM5fp7qaklXQpzuL0AsU-21" value="underMaintenance =&amp;nbsp;&lt;br&gt;userInput parsed&lt;br&gt;for bools" style="shape=parallelogram;html=1;strokeWidth=2;perimeter=parallelogramPerimeter;whiteSpace=wrap;rounded=1;arcSize=12;size=0.23;" vertex="1" parent="1">
          <mxGeometry x="245" y="990" width="183" height="60" as="geometry" />
        </mxCell>
        <mxCell id="uM5fp7qaklXQpzuL0AsU-22" value="" style="endArrow=classic;html=1;rounded=0;exitX=0.5;exitY=1;exitDx=0;exitDy=0;entryX=0.5;entryY=0;entryDx=0;entryDy=0;" edge="1" parent="1" source="uM5fp7qaklXQpzuL0AsU-12" target="uM5fp7qaklXQpzuL0AsU-13">
          <mxGeometry width="50" height="50" relative="1" as="geometry">
            <mxPoint x="460" y="600" as="sourcePoint" />
            <mxPoint x="510" y="550" as="targetPoint" />
          </mxGeometry>
        </mxCell>
        <mxCell id="uM5fp7qaklXQpzuL0AsU-23" value="" style="endArrow=classic;html=1;rounded=0;exitX=0.5;exitY=1;exitDx=0;exitDy=0;entryX=0.5;entryY=0;entryDx=0;entryDy=0;" edge="1" parent="1" source="uM5fp7qaklXQpzuL0AsU-13" target="uM5fp7qaklXQpzuL0AsU-14">
          <mxGeometry width="50" height="50" relative="1" as="geometry">
            <mxPoint x="163" y="420" as="sourcePoint" />
            <mxPoint x="163" y="440" as="targetPoint" />
          </mxGeometry>
        </mxCell>
        <mxCell id="uM5fp7qaklXQpzuL0AsU-24" value="" style="endArrow=classic;html=1;rounded=0;exitX=0.5;exitY=1;exitDx=0;exitDy=0;entryX=0.5;entryY=0;entryDx=0;entryDy=0;" edge="1" parent="1" source="uM5fp7qaklXQpzuL0AsU-14" target="uM5fp7qaklXQpzuL0AsU-15">
          <mxGeometry width="50" height="50" relative="1" as="geometry">
            <mxPoint x="173" y="430" as="sourcePoint" />
            <mxPoint x="173" y="450" as="targetPoint" />
          </mxGeometry>
        </mxCell>
        <mxCell id="uM5fp7qaklXQpzuL0AsU-26" value="" style="endArrow=classic;html=1;rounded=0;exitX=0.5;exitY=1;exitDx=0;exitDy=0;entryX=0.5;entryY=0;entryDx=0;entryDy=0;" edge="1" parent="1" source="uM5fp7qaklXQpzuL0AsU-15" target="uM5fp7qaklXQpzuL0AsU-16">
          <mxGeometry width="50" height="50" relative="1" as="geometry">
            <mxPoint x="150" y="660" as="sourcePoint" />
            <mxPoint x="190" y="660" as="targetPoint" />
          </mxGeometry>
        </mxCell>
        <mxCell id="uM5fp7qaklXQpzuL0AsU-28" value="" style="endArrow=classic;html=1;rounded=0;exitX=0.5;exitY=1;exitDx=0;exitDy=0;entryX=0.5;entryY=0;entryDx=0;entryDy=0;" edge="1" parent="1" source="uM5fp7qaklXQpzuL0AsU-16" target="uM5fp7qaklXQpzuL0AsU-17">
          <mxGeometry width="50" height="50" relative="1" as="geometry">
            <mxPoint x="310" y="730" as="sourcePoint" />
            <mxPoint x="310" y="750" as="targetPoint" />
          </mxGeometry>
        </mxCell>
        <mxCell id="uM5fp7qaklXQpzuL0AsU-29" value="" style="endArrow=classic;html=1;rounded=0;exitX=0.5;exitY=1;exitDx=0;exitDy=0;entryX=0.5;entryY=0;entryDx=0;entryDy=0;" edge="1" parent="1" source="uM5fp7qaklXQpzuL0AsU-17" target="uM5fp7qaklXQpzuL0AsU-18">
          <mxGeometry width="50" height="50" relative="1" as="geometry">
            <mxPoint x="300" y="810" as="sourcePoint" />
            <mxPoint x="300" y="830" as="targetPoint" />
          </mxGeometry>
        </mxCell>
        <mxCell id="uM5fp7qaklXQpzuL0AsU-30" value="" style="endArrow=classic;html=1;rounded=0;exitX=0.5;exitY=1;exitDx=0;exitDy=0;entryX=0.5;entryY=0;entryDx=0;entryDy=0;" edge="1" parent="1" source="uM5fp7qaklXQpzuL0AsU-18" target="uM5fp7qaklXQpzuL0AsU-19">
          <mxGeometry width="50" height="50" relative="1" as="geometry">
            <mxPoint x="310" y="890" as="sourcePoint" />
            <mxPoint x="310" y="910" as="targetPoint" />
          </mxGeometry>
        </mxCell>
        <mxCell id="uM5fp7qaklXQpzuL0AsU-31" value="" style="endArrow=classic;html=1;rounded=0;exitX=0.5;exitY=1;exitDx=0;exitDy=0;entryX=0.5;entryY=0;entryDx=0;entryDy=0;" edge="1" parent="1" source="uM5fp7qaklXQpzuL0AsU-19" target="uM5fp7qaklXQpzuL0AsU-20">
          <mxGeometry width="50" height="50" relative="1" as="geometry">
            <mxPoint x="310" y="930" as="sourcePoint" />
            <mxPoint x="310" y="950" as="targetPoint" />
          </mxGeometry>
        </mxCell>
        <mxCell id="uM5fp7qaklXQpzuL0AsU-32" value="" style="endArrow=classic;html=1;rounded=0;exitX=1;exitY=0.5;exitDx=0;exitDy=0;entryX=0;entryY=0.5;entryDx=0;entryDy=0;" edge="1" parent="1" source="uM5fp7qaklXQpzuL0AsU-20" target="uM5fp7qaklXQpzuL0AsU-21">
          <mxGeometry width="50" height="50" relative="1" as="geometry">
            <mxPoint x="280" y="940" as="sourcePoint" />
            <mxPoint x="280" y="960" as="targetPoint" />
          </mxGeometry>
        </mxCell>
        <mxCell id="uM5fp7qaklXQpzuL0AsU-37" value="" style="edgeStyle=orthogonalEdgeStyle;rounded=0;orthogonalLoop=1;jettySize=auto;html=1;" edge="1" parent="1" source="uM5fp7qaklXQpzuL0AsU-34" target="uM5fp7qaklXQpzuL0AsU-36">
          <mxGeometry relative="1" as="geometry" />
        </mxCell>
        <mxCell id="uM5fp7qaklXQpzuL0AsU-54" value="" style="edgeStyle=orthogonalEdgeStyle;rounded=0;orthogonalLoop=1;jettySize=auto;html=1;" edge="1" parent="1" source="uM5fp7qaklXQpzuL0AsU-34" target="uM5fp7qaklXQpzuL0AsU-52">
          <mxGeometry relative="1" as="geometry" />
        </mxCell>
        <mxCell id="uM5fp7qaklXQpzuL0AsU-34" value="If genre is &lt;br&gt;space exploration &lt;br&gt;or deep-sea adventure &lt;br&gt;or duration &amp;gt;= 5 minutes &lt;br&gt;and motion intensity &amp;lt;= 4" style="rhombus;whiteSpace=wrap;html=1;" vertex="1" parent="1">
          <mxGeometry x="231.5" y="755" width="210" height="210" as="geometry" />
        </mxCell>
        <mxCell id="uM5fp7qaklXQpzuL0AsU-41" value="" style="edgeStyle=orthogonalEdgeStyle;rounded=0;orthogonalLoop=1;jettySize=auto;html=1;" edge="1" parent="1" source="uM5fp7qaklXQpzuL0AsU-36" target="uM5fp7qaklXQpzuL0AsU-40">
          <mxGeometry relative="1" as="geometry" />
        </mxCell>
        <mxCell id="uM5fp7qaklXQpzuL0AsU-48" value="" style="edgeStyle=orthogonalEdgeStyle;rounded=0;orthogonalLoop=1;jettySize=auto;html=1;" edge="1" parent="1" source="uM5fp7qaklXQpzuL0AsU-36" target="uM5fp7qaklXQpzuL0AsU-47">
          <mxGeometry relative="1" as="geometry" />
        </mxCell>
        <mxCell id="uM5fp7qaklXQpzuL0AsU-36" value="If sim quality&amp;nbsp;&lt;br&gt;is high definition" style="rhombus;whiteSpace=wrap;html=1;" vertex="1" parent="1">
          <mxGeometry x="275.13" y="600" width="122.75" height="120" as="geometry" />
        </mxCell>
        <mxCell id="uM5fp7qaklXQpzuL0AsU-38" value="True" style="text;html=1;align=center;verticalAlign=middle;resizable=0;points=[];autosize=1;strokeColor=none;fillColor=none;" vertex="1" parent="1">
          <mxGeometry x="340" y="720" width="50" height="30" as="geometry" />
        </mxCell>
        <mxCell id="uM5fp7qaklXQpzuL0AsU-39" value="False" style="text;html=1;align=center;verticalAlign=middle;resizable=0;points=[];autosize=1;strokeColor=none;fillColor=none;" vertex="1" parent="1">
          <mxGeometry x="441.5" y="860" width="50" height="30" as="geometry" />
        </mxCell>
        <mxCell id="uM5fp7qaklXQpzuL0AsU-44" value="" style="edgeStyle=orthogonalEdgeStyle;rounded=0;orthogonalLoop=1;jettySize=auto;html=1;" edge="1" parent="1" source="uM5fp7qaklXQpzuL0AsU-40" target="uM5fp7qaklXQpzuL0AsU-43">
          <mxGeometry relative="1" as="geometry" />
        </mxCell>
        <mxCell id="uM5fp7qaklXQpzuL0AsU-46" value="" style="edgeStyle=orthogonalEdgeStyle;rounded=0;orthogonalLoop=1;jettySize=auto;html=1;" edge="1" parent="1" source="uM5fp7qaklXQpzuL0AsU-40" target="uM5fp7qaklXQpzuL0AsU-45">
          <mxGeometry relative="1" as="geometry" />
        </mxCell>
        <mxCell id="uM5fp7qaklXQpzuL0AsU-40" value="If ride is&lt;br&gt;not under&lt;br&gt;maintenance" style="rhombus;whiteSpace=wrap;html=1;" vertex="1" parent="1">
          <mxGeometry x="277.26" y="460" width="118.49" height="110" as="geometry" />
        </mxCell>
        <mxCell id="uM5fp7qaklXQpzuL0AsU-42" value="True" style="text;html=1;align=center;verticalAlign=middle;resizable=0;points=[];autosize=1;strokeColor=none;fillColor=none;" vertex="1" parent="1">
          <mxGeometry x="340" y="570" width="50" height="30" as="geometry" />
        </mxCell>
        <mxCell id="uM5fp7qaklXQpzuL0AsU-43" value="fit for guest is true" style="whiteSpace=wrap;html=1;" vertex="1" parent="1">
          <mxGeometry x="275.75" y="370" width="120" height="60" as="geometry" />
        </mxCell>
        <mxCell id="uM5fp7qaklXQpzuL0AsU-45" value="fit for guest is false" style="whiteSpace=wrap;html=1;" vertex="1" parent="1">
          <mxGeometry x="500" y="485" width="120" height="60" as="geometry" />
        </mxCell>
        <mxCell id="uM5fp7qaklXQpzuL0AsU-47" value="fit for guest is false" style="whiteSpace=wrap;html=1;" vertex="1" parent="1">
          <mxGeometry x="500" y="630" width="120" height="60" as="geometry" />
        </mxCell>
        <mxCell id="uM5fp7qaklXQpzuL0AsU-49" value="False" style="text;strokeColor=none;align=center;fillColor=none;html=1;verticalAlign=middle;whiteSpace=wrap;rounded=0;" vertex="1" parent="1">
          <mxGeometry x="415" y="515" width="60" height="30" as="geometry" />
        </mxCell>
        <mxCell id="uM5fp7qaklXQpzuL0AsU-50" value="False" style="text;html=1;align=center;verticalAlign=middle;resizable=0;points=[];autosize=1;strokeColor=none;fillColor=none;" vertex="1" parent="1">
          <mxGeometry x="420" y="660" width="50" height="30" as="geometry" />
        </mxCell>
        <mxCell id="uM5fp7qaklXQpzuL0AsU-52" value="fit for guest is false" style="whiteSpace=wrap;html=1;" vertex="1" parent="1">
          <mxGeometry x="500" y="830" width="120" height="60" as="geometry" />
        </mxCell>
        <mxCell id="uM5fp7qaklXQpzuL0AsU-56" value="If fit for &lt;br&gt;guest is true" style="rhombus;whiteSpace=wrap;html=1;" vertex="1" parent="1">
          <mxGeometry x="491.5" y="270" width="101.5" height="100" as="geometry" />
        </mxCell>
        <mxCell id="uM5fp7qaklXQpzuL0AsU-57" value="" style="endArrow=classic;html=1;rounded=0;exitX=1;exitY=0.5;exitDx=0;exitDy=0;entryX=0.5;entryY=1;entryDx=0;entryDy=0;" edge="1" parent="1" source="uM5fp7qaklXQpzuL0AsU-52" target="uM5fp7qaklXQpzuL0AsU-56">
          <mxGeometry width="50" height="50" relative="1" as="geometry">
            <mxPoint x="770" y="640" as="sourcePoint" />
            <mxPoint x="640" y="310" as="targetPoint" />
            <Array as="points">
              <mxPoint x="700" y="860" />
              <mxPoint x="700" y="670" />
              <mxPoint x="700" y="420" />
              <mxPoint x="542" y="420" />
            </Array>
          </mxGeometry>
        </mxCell>
        <mxCell id="uM5fp7qaklXQpzuL0AsU-60" value="" style="endArrow=none;html=1;rounded=0;exitX=1;exitY=0.5;exitDx=0;exitDy=0;" edge="1" parent="1" source="uM5fp7qaklXQpzuL0AsU-45">
          <mxGeometry width="50" height="50" relative="1" as="geometry">
            <mxPoint x="490" y="610" as="sourcePoint" />
            <mxPoint x="700" y="515" as="targetPoint" />
          </mxGeometry>
        </mxCell>
        <mxCell id="uM5fp7qaklXQpzuL0AsU-61" value="" style="endArrow=none;html=1;rounded=0;exitX=1;exitY=0.5;exitDx=0;exitDy=0;" edge="1" parent="1" source="uM5fp7qaklXQpzuL0AsU-47">
          <mxGeometry width="50" height="50" relative="1" as="geometry">
            <mxPoint x="490" y="610" as="sourcePoint" />
            <mxPoint x="700" y="660" as="targetPoint" />
          </mxGeometry>
        </mxCell>
        <mxCell id="uM5fp7qaklXQpzuL0AsU-63" value="" style="endArrow=classic;html=1;rounded=0;entryX=0;entryY=0.5;entryDx=0;entryDy=0;exitX=0.5;exitY=0;exitDx=0;exitDy=0;" edge="1" parent="1" source="uM5fp7qaklXQpzuL0AsU-43" target="uM5fp7qaklXQpzuL0AsU-56">
          <mxGeometry width="50" height="50" relative="1" as="geometry">
            <mxPoint x="320" y="340" as="sourcePoint" />
            <mxPoint x="370" y="270" as="targetPoint" />
            <Array as="points">
              <mxPoint x="336" y="320" />
            </Array>
          </mxGeometry>
        </mxCell>
        <mxCell id="uM5fp7qaklXQpzuL0AsU-64" value="" style="endArrow=classic;html=1;rounded=0;exitX=0.5;exitY=0;exitDx=0;exitDy=0;entryX=0.5;entryY=1;entryDx=0;entryDy=0;" edge="1" parent="1" source="uM5fp7qaklXQpzuL0AsU-56" target="uM5fp7qaklXQpzuL0AsU-69">
          <mxGeometry width="50" height="50" relative="1" as="geometry">
            <mxPoint x="520" y="230" as="sourcePoint" />
            <mxPoint x="542" y="210" as="targetPoint" />
          </mxGeometry>
        </mxCell>
        <mxCell id="uM5fp7qaklXQpzuL0AsU-65" value="" style="endArrow=classic;html=1;rounded=0;exitX=1;exitY=0.5;exitDx=0;exitDy=0;entryX=0;entryY=0.5;entryDx=0;entryDy=0;" edge="1" parent="1" source="uM5fp7qaklXQpzuL0AsU-56" target="uM5fp7qaklXQpzuL0AsU-70">
          <mxGeometry width="50" height="50" relative="1" as="geometry">
            <mxPoint x="640" y="310" as="sourcePoint" />
            <mxPoint x="670" y="320" as="targetPoint" />
          </mxGeometry>
        </mxCell>
        <mxCell id="uM5fp7qaklXQpzuL0AsU-66" value="False" style="text;html=1;align=center;verticalAlign=middle;resizable=0;points=[];autosize=1;strokeColor=none;fillColor=none;" vertex="1" parent="1">
          <mxGeometry x="593" y="320" width="50" height="30" as="geometry" />
        </mxCell>
        <mxCell id="uM5fp7qaklXQpzuL0AsU-67" value="True" style="text;html=1;align=center;verticalAlign=middle;resizable=0;points=[];autosize=1;strokeColor=none;fillColor=none;" vertex="1" parent="1">
          <mxGeometry x="340" y="430" width="50" height="30" as="geometry" />
        </mxCell>
        <mxCell id="uM5fp7qaklXQpzuL0AsU-68" value="True" style="text;html=1;align=center;verticalAlign=middle;resizable=0;points=[];autosize=1;strokeColor=none;fillColor=none;" vertex="1" parent="1">
          <mxGeometry x="543" y="240" width="50" height="30" as="geometry" />
        </mxCell>
        <mxCell id="uM5fp7qaklXQpzuL0AsU-69" value="DIsplay&lt;br&gt;&quot;Experience&lt;br&gt;is fit for&lt;br&gt;guest use&quot;" style="shape=parallelogram;html=1;strokeWidth=2;perimeter=parallelogramPerimeter;whiteSpace=wrap;rounded=1;arcSize=12;size=0.23;" vertex="1" parent="1">
          <mxGeometry x="483.75" y="160" width="117" height="60" as="geometry" />
        </mxCell>
        <mxCell id="uM5fp7qaklXQpzuL0AsU-70" value="Display&lt;br&gt;&quot;Experience &lt;br&gt;is unfit for &lt;br&gt;guest use&quot;" style="shape=parallelogram;html=1;strokeWidth=2;perimeter=parallelogramPerimeter;whiteSpace=wrap;rounded=1;arcSize=12;size=0.23;" vertex="1" parent="1">
          <mxGeometry x="643" y="290" width="117" height="60" as="geometry" />
        </mxCell>
        <mxCell id="uM5fp7qaklXQpzuL0AsU-84" value="" style="edgeStyle=orthogonalEdgeStyle;rounded=0;orthogonalLoop=1;jettySize=auto;html=1;" edge="1" parent="1" source="uM5fp7qaklXQpzuL0AsU-72" target="uM5fp7qaklXQpzuL0AsU-83">
          <mxGeometry relative="1" as="geometry" />
        </mxCell>
        <mxCell id="uM5fp7qaklXQpzuL0AsU-72" value="End while" style="rounded=1;whiteSpace=wrap;html=1;" vertex="1" parent="1">
          <mxGeometry x="277.26" y="10" width="120" height="60" as="geometry" />
        </mxCell>
        <mxCell id="uM5fp7qaklXQpzuL0AsU-78" value="" style="endArrow=classic;html=1;rounded=0;entryX=0;entryY=0.5;entryDx=0;entryDy=0;" edge="1" parent="1" target="uM5fp7qaklXQpzuL0AsU-3">
          <mxGeometry width="50" height="50" relative="1" as="geometry">
            <mxPoint x="40" y="1080" as="sourcePoint" />
            <mxPoint x="40" y="230" as="targetPoint" />
            <Array as="points">
              <mxPoint x="40" y="235" />
            </Array>
          </mxGeometry>
        </mxCell>
        <mxCell id="uM5fp7qaklXQpzuL0AsU-79" value="" style="endArrow=none;html=1;rounded=0;" edge="1" parent="1">
          <mxGeometry width="50" height="50" relative="1" as="geometry">
            <mxPoint x="40" y="1080" as="sourcePoint" />
            <mxPoint x="800" y="1080" as="targetPoint" />
            <Array as="points">
              <mxPoint x="280" y="1080" />
            </Array>
          </mxGeometry>
        </mxCell>
        <mxCell id="uM5fp7qaklXQpzuL0AsU-80" value="" style="endArrow=none;html=1;rounded=0;" edge="1" parent="1">
          <mxGeometry width="50" height="50" relative="1" as="geometry">
            <mxPoint x="800" y="1080" as="sourcePoint" />
            <mxPoint x="800" y="190" as="targetPoint" />
          </mxGeometry>
        </mxCell>
        <mxCell id="uM5fp7qaklXQpzuL0AsU-81" value="" style="endArrow=none;html=1;rounded=0;exitX=1;exitY=0.5;exitDx=0;exitDy=0;" edge="1" parent="1" source="uM5fp7qaklXQpzuL0AsU-70">
          <mxGeometry width="50" height="50" relative="1" as="geometry">
            <mxPoint x="430" y="610" as="sourcePoint" />
            <mxPoint x="800" y="320" as="targetPoint" />
          </mxGeometry>
        </mxCell>
        <mxCell id="uM5fp7qaklXQpzuL0AsU-82" value="" style="endArrow=none;html=1;rounded=0;exitX=1;exitY=0.5;exitDx=0;exitDy=0;" edge="1" parent="1" source="uM5fp7qaklXQpzuL0AsU-69">
          <mxGeometry width="50" height="50" relative="1" as="geometry">
            <mxPoint x="430" y="610" as="sourcePoint" />
            <mxPoint x="800" y="190" as="targetPoint" />
          </mxGeometry>
        </mxCell>
        <mxCell id="uM5fp7qaklXQpzuL0AsU-83" value="End" style="ellipse;whiteSpace=wrap;html=1;" vertex="1" parent="1">
          <mxGeometry x="441.5" width="120" height="80" as="geometry" />
        </mxCell>
      </root>
    </mxGraphModel>
  </diagram>
</mxfile>
